<svg id="Calque_1" data-name="Calque 1" xmlns="http://www.w3.org/2000/svg" viewBox="0 0 339.9 339.88"><defs><style>.cls-1{fill:#1F392E;}</style></defs><title>ai</title><path class="cls-1" d="M733.82,85.79c0-3.49-.57-4.56-4.37-4.56q-165.57.19-331.14,0c-3.25,0-4.36.55-4.36,4.16q.17,165.77,0,331.52c0,3.66,1.17,4.15,4.38,4.15Q481.12,421,563.9,421q82.61,0,165.19.08c3.6,0,4.76-.56,4.76-4.56Q733.64,251.18,733.82,85.79ZM575.65,350.51c-2.23,0-2.26-1.46-2.68-2.85-4.28-14.17-8.62-28.31-12.77-42.52-.75-2.58-1.81-3.45-4.57-3.43-15.91.16-31.82.12-47.73,0-2.35,0-3.44.48-4.12,3.05-3.82,14.3-7.91,28.52-11.93,42.76-.38,1.34-.25,3-2.56,2.95-14.24-.09-28.49,0-43.1,0,3.51-11.6,6.91-22.87,10.35-34.12q23.35-76.26,46.63-152.53c1.06-3.49,2.5-4.34,5.94-4.3,16.16.19,32.32.15,48.48,0,2.72,0,3.91.74,4.73,3.39q26.46,85.92,53.1,171.79c1.59,5.14,3.2,10.26,4.91,15.75C605.14,350.47,590.4,350.42,575.65,350.51Zm101.19,0c-12.24-.18-24.49-.15-36.73,0-2.66,0-3.34-.68-3.33-3.33.11-22,.07-43.93.07-65.9s0-43.68-.06-65.52c0-2.85.54-3.92,3.7-3.86,12.12.2,24.24.18,36.36,0,2.95-.05,3.51.93,3.51,3.66q-.12,65.71,0,131.42C680.37,349.83,679.73,350.59,676.84,350.54Zm-18.53-155.4c-13.11,0-22.36-8.83-22.39-21.36,0-13.1,9.05-21.86,22.66-21.88,13.46,0,22.85,8.91,22.92,21.78C681.57,186.23,671.94,195.14,658.31,195.14Z" transform="translate(-393.95 -81.23)"/><path class="cls-1" d="M537,212.71c-1.88-6.73-3.74-13.46-5.9-21.25l-20.21,77.78c13.41,0,26.41-.05,39.4,0,2.8,0,2.25-1.12,1.72-3Q544.42,239.54,537,212.71Z" transform="translate(-393.95 -81.23)"/></svg>